<svg width="32" height="32" viewBox="0 0 32 32" fill="none" xmlns="http://www.w3.org/2000/svg">
<rect x="32" y="32" width="32" height="32" rx="16" transform="rotate(-180 32 32)" fill="white"/>
<rect x="32" y="32" width="32" height="32" rx="16" transform="rotate(-180 32 32)" fill="#3EA2FF" fill-opacity="0.2"/>
<path d="M22.1406 17.0151L15.5 23.6558C15.041 24.1147 14.2988 24.1147 13.8447 23.6558L12.7412 22.5522C12.2822 22.0933 12.2822 21.3511 12.7412 20.897L17.4482 16.1899L12.7412 11.4829C12.2822 11.0239 12.2822 10.2817 12.7412 9.82764L13.8398 8.71436C14.2988 8.25537 15.041 8.25537 15.4951 8.71436L22.1357 15.355C22.5996 15.814 22.5996 16.5562 22.1406 17.0151Z" fill="#0084FF"/>
</svg>
