<svg width="15" height="11" viewBox="0 0 15 11" fill="none" xmlns="http://www.w3.org/2000/svg">
<path d="M14.5582 0.776474C13.6491 0.395152 12.7393 0.250076 11.8299 0.250076C8.94314 0.249842 6.05662 1.71115 3.16987 1.71115C2.4459 1.71115 1.72239 1.61927 0.998422 1.38959C0.917095 1.36381 0.835534 1.35162 0.755848 1.35162C0.352494 1.35162 0 1.6638 0 2.09716V9.53282C0 9.82883 0.16945 10.1094 0.441556 10.2233C1.35068 10.6048 2.26051 10.7499 3.16987 10.7499C6.05662 10.7499 8.94338 9.28861 11.8301 9.28861C12.5541 9.28861 13.2776 9.38048 14.0016 9.61016C14.0829 9.63595 14.1645 9.64813 14.2442 9.64813C14.6475 9.64813 15 9.33595 15 8.9026V1.46717C14.9998 1.17092 14.8303 0.890613 14.5582 0.776474ZM7.49988 7.74996C6.4642 7.74996 5.62491 6.7424 5.62491 5.49999C5.62491 4.25736 6.46443 3.25003 7.49988 3.25003C8.53533 3.25003 9.37485 4.25736 9.37485 5.49999C9.37485 6.74287 8.5351 7.74996 7.49988 7.74996Z" fill="#3EA2FF"/>
</svg>
