<svg width="15" height="16" viewBox="0 0 15 16" fill="none" xmlns="http://www.w3.org/2000/svg">
<path fill-rule="evenodd" clip-rule="evenodd" d="M12.6061 3.02597C13.0156 4.74169 12.551 6.6236 11.2123 7.96228L7.5 11.6746L3.78769 7.96228C2.5055 6.68015 2.02517 4.89974 2.34669 3.24428L0 4.25V14.9313C0 14.982 0.0103126 15.0324 0.0303226 15.079C0.111908 15.2694 0.332355 15.3576 0.52272 15.276L5.25 13.25L9.75 15.5L15 13.25V2.5687C15 2.51792 14.9897 2.46766 14.9697 2.42098C14.8881 2.23062 14.6677 2.14244 14.4773 2.22403L12.6061 3.02597ZM7.5 9.55333L10.1516 6.90163C11.6161 5.43718 11.6161 3.06282 10.1516 1.59835C8.68717 0.133882 6.31283 0.133882 4.84835 1.59835C3.38388 3.06282 3.38388 5.43718 4.84835 6.90163L7.5 9.55333ZM7.5 5.5C6.67157 5.5 6 4.82841 6 4C6 3.17157 6.67157 2.5 7.5 2.5C8.32841 2.5 9 3.17157 9 4C9 4.82841 8.32841 5.5 7.5 5.5Z" fill="#3EA2FF"/>
</svg>
