<svg width="15" height="12" viewBox="0 0 15 12" fill="none" xmlns="http://www.w3.org/2000/svg">
<path fill-rule="evenodd" clip-rule="evenodd" d="M0.681818 0.545898C0.305264 0.545898 0 0.851162 0 1.22772V10.7732C0 11.1497 0.305264 11.455 0.681818 11.455H14.3182C14.6947 11.455 15 11.1497 15 10.7732V1.22772C15 0.851162 14.6947 0.545898 14.3182 0.545898H0.681818ZM4.81717 3.90945C5.19372 3.90945 5.49898 4.21472 5.49898 4.59127C5.49898 4.96784 5.19372 5.27309 4.81717 5.27309C4.44061 5.27309 4.13535 4.96784 4.13535 4.59127C4.13535 4.21472 4.44061 3.90945 4.81717 3.90945ZM4.81717 6.63673C5.94684 6.63673 6.86262 5.72098 6.86262 4.59127C6.86262 3.4616 5.94684 2.54582 4.81717 2.54582C3.6875 2.54582 2.77171 3.4616 2.77171 4.59127C2.77171 5.72098 3.6875 6.63673 4.81717 6.63673ZM3.13098 9.38111C3.56358 8.94857 4.15923 8.68218 4.81839 8.68218C5.47756 8.68218 6.07322 8.94857 6.50583 9.38111L7.47005 8.41689C6.79219 7.73902 5.85374 7.31854 4.81839 7.31854C3.78305 7.31854 2.84462 7.73902 2.16675 8.41689L3.13098 9.38111ZM12.4242 5.24279H8.33333V3.87915H12.4242V5.24279ZM8.33333 7.28828H12.4242V5.92464H8.33333V7.28828Z" fill="#3EA2FF"/>
</svg>
